<svg xmlns="http://www.w3.org/2000/svg" viewBox="0 0 820 430" role="img" aria-labelledby="title desc">
  <title id="title">MILA-KARTON — Minimalist Market Place</title>
  <desc id="desc">Mila-Karton logo with a glossy blue shopping-bag mark.</desc>
  <defs>
    <linearGradient id="blue" x1="20%" y1="0%" x2="85%" y2="100%"><stop offset="0" stop-color="#64d7ff"/><stop offset=".42" stop-color="#159be8"/><stop offset="1" stop-color="#0759bf"/></linearGradient>
    <linearGradient id="shine" x1="0%" y1="0%" x2="100%" y2="0%"><stop offset="0" stop-color="#fff" stop-opacity="0"/><stop offset=".45" stop-color="#fff" stop-opacity=".55"/><stop offset=".7" stop-color="#fff" stop-opacity="0"/></linearGradient>
    <filter id="shadow" x="-30%" y="-30%" width="160%" height="170%"><feDropShadow dx="0" dy="8" stdDeviation="7" flood-color="#063b86" flood-opacity=".2"/></filter>
  </defs>
  <g transform="translate(316 16) scale(.75)" filter="url(#shadow)">
    <path d="M50 76c0-8 6-14 14-14h128c8 0 14 6 14 14l-10 112c-1 11-7 16-18 16H74c-11 0-17-5-18-16L50 76Z" fill="url(#blue)"/>
    <path d="M84 73V51c0-23 18-41 41-41s41 18 41 41v22" fill="none" stroke="#0b2349" stroke-width="12" stroke-linecap="round"/>
    <path d="M82 180v28c0 12 7 19 18 19s18-7 18-19v-58c0-9 5-14 11-14s11 5 11 14v76c0 12 7 19 18 19s18-7 18-19v-41" fill="none" stroke="url(#blue)" stroke-width="20" stroke-linecap="round" stroke-linejoin="round"/>
    <path d="M82 82h93" stroke="url(#shine)" stroke-width="7" stroke-linecap="round" opacity=".65"/><circle cx="72" cy="222" r="10" fill="#0b83dc"/>
  </g>
  <text x="410" y="286" text-anchor="middle" fill="#0b2349" font-family="Georgia, 'Times New Roman', serif" font-size="58" font-weight="700" letter-spacing="5">MILA-KARTON</text>
  <text x="410" y="330" text-anchor="middle" fill="#0b83dc" font-family="Arial, Helvetica, sans-serif" font-size="23" font-weight="700" letter-spacing="2.8">Minimalist Market Place</text>
</svg>
